<?xml version="1.0" encoding="UTF-8"?>
<svg width="274px" height="146px" viewBox="0 0 274 146" version="1.1" xmlns="http://www.w3.org/2000/svg" xmlns:xlink="http://www.w3.org/1999/xlink">
    <!-- Generator: Sketch 52.2 (67145) - http://www.bohemiancoding.com/sketch -->
    <title>Group 2</title>
    <desc>Created with Sketch.</desc>
    <g id="Page-1" stroke="none" stroke-width="1" fill="none" fill-rule="evenodd">
        <g id="Group-2" transform="translate(-0.387305, -0.105238)" fill="#FFFFFF">
            <polygon id="Path" points="0.820065551 50.8648689 18.7406155 51.1735686 6.61804784 89.5047195 39.6479238 39.3395845 21.7273738 39.0308848 33.8499415 0.699733978"></polygon>
            <path d="M72.7784956,93.1060539 L58.3715977,93.1060539 L55.3573885,101.765519 L48.6392784,101.765519 L62.6885582,64.5732437 L68.4870792,64.5732437 L82.5619032,101.765519 L75.8182489,101.765519 L72.7784956,93.1060539 Z M60.185232,87.8950483 L70.9648613,87.8950483 L65.5750466,72.4663846 L60.185232,87.8950483 Z M92.7795613,101.765519 L86.572334,101.765519 L86.572334,62.5297121 L92.7795613,62.5297121 L92.7795613,101.765519 Z M111.707773,102.276402 C107.773955,102.276402 104.585226,101.037523 102.14149,98.5597289 C99.697755,96.0819344 98.4759057,92.7825153 98.4759057,88.6613726 L98.4759057,87.8950483 C98.4759057,85.1362668 99.00807,82.6712814 100.072415,80.5000182 C101.136759,78.328755 102.631077,76.638601 104.555412,75.4295054 C106.479747,74.2204098 108.625434,73.6158711 110.992537,73.6158711 C114.75606,73.6158711 117.663806,74.8164339 119.715862,77.2175956 C121.767919,79.6187572 122.793932,83.0160946 122.793932,87.4097095 L122.793932,89.9130357 L104.734221,89.9130357 C104.921546,92.1949908 105.683605,94.0000923 107.020422,95.3283945 C108.357239,96.6566967 110.038879,97.3208379 112.065391,97.3208379 C114.90932,97.3208379 117.225299,96.1713628 119.013398,93.8723782 L122.359681,97.0653964 C121.252763,98.7172594 119.775475,99.9987112 117.927772,100.90979 C116.08007,101.820869 114.006757,102.276402 111.707773,102.276402 Z M110.966993,78.5969794 C109.264041,78.5969794 107.888928,79.1930035 106.841613,80.3850696 C105.794298,81.5771357 105.1259,83.2374885 104.836398,85.3661779 L116.663337,85.3661779 L116.663337,84.9063833 C116.527101,82.8287824 115.97365,81.2578332 115.002968,80.1934885 C114.032285,79.1291438 112.686974,78.5969794 110.966993,78.5969794 Z M137.532904,83.2204697 L142.794998,74.126754 L149.691917,74.126754 L141.236805,87.7417834 L149.972902,101.765519 L143.127071,101.765519 L137.609536,92.3141854 L132.117545,101.765519 L125.220626,101.765519 L133.956723,87.7417834 L125.527155,74.126754 L132.372986,74.126754 L137.532904,83.2204697 Z M170.433763,101.765519 C170.16129,101.237604 169.922881,100.377627 169.718527,99.1855605 C167.743103,101.246132 165.324948,102.276402 162.463989,102.276402 C159.688178,102.276402 157.423287,101.484541 155.669247,99.9007965 C153.915207,98.3170516 153.0382,96.3586867 153.0382,94.0256431 C153.0382,91.079537 154.13233,88.8189027 156.320622,87.2436726 C158.508915,85.6684424 161.638042,84.8808391 165.708096,84.8808391 L169.514173,84.8808391 L169.514173,83.0672048 C169.514173,81.6367255 169.113986,80.4915078 168.313599,79.6315173 C167.513211,78.7715268 166.295619,78.341538 164.660786,78.341538 C163.247336,78.341538 162.089346,78.6948951 161.186782,79.40162 C160.284218,80.1083449 159.832942,81.0066383 159.832942,82.0965273 L153.625715,82.0965273 C153.625715,80.5809005 154.128078,79.1632146 155.13282,77.8434271 C156.137561,76.5236397 157.504159,75.4891122 159.232655,74.7398135 C160.961151,73.9905148 162.889714,73.6158711 165.018404,73.6158711 C168.254012,73.6158711 170.833945,74.4290183 172.75828,76.055337 C174.682615,77.6816557 175.670312,79.9678338 175.721401,82.91394 L175.721401,95.3794828 C175.721401,97.865792 176.070501,99.8497008 176.768711,101.331269 L176.768711,101.765519 L170.433763,101.765519 Z M163.613476,97.2952937 C164.839601,97.2952937 165.993333,96.9972817 167.074708,96.4012486 C168.156082,95.8052156 168.969229,95.0048404 169.514173,94.000099 L169.514173,88.7890934 L166.16789,88.7890934 C163.868906,88.7890934 162.140436,89.189281 160.982429,89.9896682 C159.824422,90.7900554 159.245427,91.9225012 159.245427,93.3870395 C159.245427,94.5791056 159.641357,95.5284868 160.43323,96.2352117 C161.225102,96.9419366 162.285174,97.2952937 163.613476,97.2952937 Z M187.98259,74.126754 L188.161399,77.3197722 C190.204941,74.8504924 192.88705,73.6158711 196.207805,73.6158711 C201.963781,73.6158711 204.892814,76.9110329 204.994991,83.5014553 L204.994991,101.765519 L198.787764,101.765519 L198.787764,83.8590733 C198.787764,82.1050333 198.408863,80.8065522 197.651049,79.9635912 C196.893236,79.1206302 195.654357,78.699156 193.934376,78.699156 C191.431038,78.699156 189.566334,79.8316018 188.340208,82.0965273 L188.340208,101.765519 L182.132981,101.765519 L182.132981,74.126754 L187.98259,74.126754 Z M210.154908,87.7417834 C210.154908,83.4844046 211.142606,80.0657807 213.118029,77.4858091 C215.093453,74.9058375 217.741503,73.6158711 221.062258,73.6158711 C223.991335,73.6158711 226.358402,74.6376267 228.163531,76.6811685 L228.163531,62.5297121 L234.370758,62.5297121 L234.370758,101.765519 L228.751046,101.765519 L228.444516,98.9045749 C226.588299,101.152471 224.110542,102.276402 221.01117,102.276402 C217.775562,102.276402 215.157314,100.973664 213.156346,98.3681478 C211.155377,95.762632 210.154908,92.2205459 210.154908,87.7417834 Z M216.362136,88.2782104 C216.362136,91.0880805 216.902815,93.2805977 217.984189,94.8558278 C219.065563,96.431058 220.602454,97.2186613 222.594907,97.2186613 C225.132305,97.2186613 226.988494,96.0862155 228.163531,93.82129 L228.163531,82.0198949 C227.022553,79.8060579 225.183393,78.699156 222.645995,78.699156 C220.636513,78.699156 219.08685,79.4952739 217.996961,81.0875336 C216.907072,82.6797933 216.362136,85.0766616 216.362136,88.2782104 Z M255.316957,79.7975542 C254.49954,79.6613181 253.656592,79.5932011 252.788087,79.5932011 C249.944158,79.5932011 248.028366,80.6830737 247.040654,82.8628517 L247.040654,101.765519 L240.833427,101.765519 L240.833427,74.126754 L246.759669,74.126754 L246.912933,77.2175956 C248.411531,74.8164339 250.4891,73.6158711 253.145705,73.6158711 C254.03124,73.6158711 254.763498,73.7350759 255.342501,73.9734891 L255.316957,79.7975542 Z M51.9600172,145.36086 L51.9600172,108.168585 L64.7065457,108.168585 C68.912836,108.168585 72.1143368,109.011533 74.3111443,110.697455 C76.5079518,112.383377 77.606339,114.895193 77.606339,118.232978 C77.606339,119.93593 77.146549,121.468563 76.2269552,122.830924 C75.3073614,124.193285 73.9620498,125.2491 72.1909802,125.998398 C74.200463,126.543343 75.754383,127.569356 76.8527867,129.076468 C77.9511905,130.58358 78.5003841,132.392939 78.5003841,134.504599 C78.5003841,137.995649 77.3807103,140.677758 75.141329,142.551004 C72.9019477,144.424251 69.6961896,145.36086 65.5239583,145.36086 L51.9600172,145.36086 Z M58.422686,128.578357 L58.422686,140.200943 L65.6005908,140.200943 C67.6271031,140.200943 69.2108243,139.69858 70.3518018,138.693838 C71.4927793,137.689097 72.0632595,136.292698 72.0632595,134.504599 C72.0632595,130.638899 70.0878654,128.663504 66.1370178,128.578357 L58.422686,128.578357 Z M58.422686,123.827146 L64.757634,123.827146 C66.7671168,123.827146 68.338066,123.371613 69.4705288,122.460534 C70.6029915,121.549455 71.1692144,120.259489 71.1692144,118.590596 C71.1692144,116.751408 70.6455647,115.423126 69.5982495,114.605709 C68.5509343,113.788293 66.9203827,113.37959 64.7065457,113.37959 L58.422686,113.37959 L58.422686,123.827146 Z M101.106953,142.653181 C99.2847945,144.7989 96.696347,145.871743 93.3415325,145.871743 C90.3443378,145.871743 88.0751889,144.994736 86.5340178,143.240696 C84.9928466,141.486656 84.2222726,138.949296 84.2222726,135.628541 L84.2222726,117.722095 L90.4294999,117.722095 L90.4294999,135.551909 C90.4294999,139.059989 91.8855016,140.814002 94.7975487,140.814002 C97.8117729,140.814002 99.8467695,139.732644 100.902599,137.569896 L100.902599,117.722095 L107.109827,117.722095 L107.109827,145.36086 L101.260217,145.36086 L101.106953,142.653181 Z M122.41077,133.508377 L119.652002,136.343777 L119.652002,145.36086 L113.444775,145.36086 L113.444775,106.125053 L119.652002,106.125053 L119.652002,128.757166 L121.593357,126.330472 L129.231056,117.722095 L136.689947,117.722095 L126.421201,129.242505 L137.788345,145.36086 L130.61044,145.36086 L122.41077,133.508377 Z M146.856517,120.736304 C148.883029,118.386231 151.445933,117.211212 154.545304,117.211212 C160.437517,117.211212 163.426152,120.574491 163.511299,127.30115 L163.511299,145.36086 L157.304072,145.36086 L157.304072,127.531047 C157.304072,125.623741 156.891113,124.274172 156.065181,123.4823 C155.23925,122.690427 154.025915,122.294497 152.42514,122.294497 C149.938831,122.294497 148.082642,123.401399 146.856517,125.615236 L146.856517,145.36086 L140.649289,145.36086 L140.649289,106.125053 L146.856517,106.125053 L146.856517,120.736304 Z M186.296677,145.36086 C186.024205,144.832945 185.785795,143.972968 185.581441,142.780902 C183.606017,144.841473 181.187862,145.871743 178.326904,145.871743 C175.551093,145.871743 173.286201,145.079883 171.532161,143.496138 C169.778121,141.912393 168.901114,139.954028 168.901114,137.620984 C168.901114,134.674878 169.995244,132.414244 172.183537,130.839014 C174.371829,129.263784 177.500956,128.47618 181.57101,128.47618 L185.377088,128.47618 L185.377088,126.662546 C185.377088,125.232067 184.9769,124.086849 184.176513,123.226858 C183.376126,122.366868 182.158534,121.936879 180.5237,121.936879 C179.11025,121.936879 177.952261,122.290236 177.049696,122.996961 C176.147132,123.703686 175.695857,124.601979 175.695857,125.691868 L169.488629,125.691868 C169.488629,124.176242 169.990992,122.758556 170.995734,121.438768 C172.000475,120.118981 173.367073,119.084453 175.095569,118.335155 C176.824065,117.585856 178.752629,117.211212 180.881318,117.211212 C184.116926,117.211212 186.696859,118.024359 188.621194,119.650678 C190.545529,121.276997 191.533226,123.563175 191.584315,126.509281 L191.584315,138.974824 C191.584315,141.461133 191.933415,143.445042 192.631625,144.92661 L192.631625,145.36086 L186.296677,145.36086 Z M179.47639,140.890635 C180.702515,140.890635 181.856248,140.592623 182.937622,139.99659 C184.018996,139.400557 184.832143,138.600182 185.377088,137.59544 L185.377088,132.384434 L182.030805,132.384434 C179.73182,132.384434 178.00335,132.784622 176.845343,133.585009 C175.687336,134.385397 175.108341,135.517842 175.108341,136.982381 C175.108341,138.174447 175.504272,139.123828 176.296144,139.830553 C177.088016,140.537278 178.148088,140.890635 179.47639,140.890635 Z M204.688461,145.36086 L198.481234,145.36086 L198.481234,106.125053 L204.688461,106.125053 L204.688461,145.36086 Z" id="Alexandr-Bukhal"></path>
            <path d="M222.340378,125.766028 C222.298505,126.675263 222.053255,127.478309 221.604619,128.175189 C221.155984,128.87207 220.526408,129.41192 219.715873,129.794755 C218.905338,130.177591 217.979667,130.369006 216.938833,130.369006 C215.222054,130.369006 213.870186,129.809715 212.883188,128.691117 C211.89619,127.57252 211.402698,125.993346 211.402698,123.95355 L211.402698,123.307518 C211.402698,122.027411 211.625517,120.907335 212.071162,119.947255 C212.516807,118.987175 213.158346,118.245442 213.995799,117.722034 C214.833252,117.198626 215.80229,116.936925 216.902942,116.936925 C218.488121,116.936925 219.762227,117.35415 220.725298,118.188612 C221.688369,119.023074 222.235696,120.17306 222.367296,121.638602 L219.226863,121.638602 C219.202936,120.843022 219.002548,120.271768 218.625694,119.924823 C218.24884,119.577878 217.674595,119.404409 216.902942,119.404409 C216.119326,119.404409 215.545081,119.697513 215.180191,120.28373 C214.8153,120.869947 214.623885,121.806086 214.60594,123.092174 L214.60594,124.016359 C214.60594,125.41012 214.780905,126.406076 215.130841,127.004256 C215.480777,127.602437 216.083435,127.901523 216.938833,127.901523 C217.662632,127.901523 218.21594,127.731044 218.598776,127.390081 C218.981612,127.049118 219.18499,126.507773 219.208917,125.766028 L222.340378,125.766028 Z M223.309426,125.245614 C223.309426,124.276561 223.49785,123.413698 223.874704,122.657 C224.251557,121.900301 224.792903,121.318579 225.498756,120.911816 C226.204609,120.505054 227.033077,120.301675 227.984184,120.301675 C229.437764,120.301675 230.583262,120.751799 231.420715,121.652061 C232.258168,122.552323 232.676889,123.77708 232.676889,125.326368 L232.676889,125.43404 C232.676889,126.947437 232.256673,128.148267 231.416229,129.036565 C230.575785,129.924863 229.437763,130.369006 228.00213,130.369006 C226.620332,130.369006 225.510724,129.954772 224.673271,129.126292 C223.835818,128.297812 223.384198,127.174744 223.318398,125.757056 L223.309426,125.245614 Z M226.333214,125.43404 C226.333214,126.331311 226.473784,126.9893 226.754929,127.408026 C227.036074,127.826753 227.451804,128.036113 228.00213,128.036113 C229.078855,128.036113 229.629173,127.207645 229.6531,125.550685 L229.6531,125.245614 C229.6531,123.504908 229.096801,122.634568 227.984184,122.634568 C226.973259,122.634568 226.425932,123.385274 226.342187,124.886707 L226.333214,125.43404 Z M236.867123,120.481128 L236.965823,121.620657 C237.653731,120.741331 238.577906,120.301675 239.738376,120.301675 C240.964647,120.301675 241.793115,120.789185 242.223805,121.76422 C242.881804,120.789185 243.832897,120.301675 245.077112,120.301675 C247.045127,120.301675 248.056037,121.492037 248.109873,123.872796 L248.109873,130.189553 L245.077112,130.189553 L245.077112,124.061222 C245.077112,123.564732 244.993368,123.202838 244.825878,122.975529 C244.658387,122.748221 244.35332,122.634568 243.910666,122.634568 C243.312485,122.634568 242.866847,122.900755 242.573739,123.433135 L242.582711,123.558753 L242.582711,130.189553 L239.54995,130.189553 L239.54995,124.079167 C239.54995,123.570714 239.469197,123.202838 239.307688,122.975529 C239.14618,122.748221 238.838121,122.634568 238.383504,122.634568 C237.803269,122.634568 237.360622,122.900755 237.055549,123.433135 L237.055549,130.189553 L234.031761,130.189553 L234.031761,120.481128 L236.867123,120.481128 Z M253.026894,130.189553 L249.994133,130.189553 L249.994133,120.481128 L253.026894,120.481128 L253.026894,130.189553 Z M249.81468,117.977755 C249.81468,117.547065 249.970205,117.194143 250.281259,116.91898 C250.592313,116.643817 250.996078,116.506238 251.492568,116.506238 C251.989058,116.506238 252.392824,116.643817 252.703878,116.91898 C253.014932,117.194143 253.170457,117.547065 253.170457,117.977755 C253.170457,118.408445 253.014932,118.761366 252.703878,119.036529 C252.392824,119.311692 251.989058,119.449272 251.492568,119.449272 C250.996078,119.449272 250.592313,119.311692 250.281259,119.036529 C249.970205,118.761366 249.81468,118.408445 249.81468,117.977755 Z M257.665762,120.481128 L257.764462,121.620657 C258.434424,120.741331 259.358599,120.301675 260.537015,120.301675 C261.547941,120.301675 262.303133,120.603752 262.802613,121.207914 C263.302094,121.812077 263.560804,122.721298 263.578749,123.935605 L263.578749,130.189553 L260.545988,130.189553 L260.545988,124.061222 C260.545988,123.570714 260.44729,123.210315 260.24989,122.980016 C260.05249,122.749716 259.693587,122.634568 259.17317,122.634568 C258.580971,122.634568 258.141315,122.867855 257.854188,123.334436 L257.854188,130.189553 L254.8304,130.189553 L254.8304,120.481128 L257.665762,120.481128 Z M264.897731,125.263559 C264.897731,124.282543 265.059237,123.415194 265.382255,122.661486 C265.705272,121.907778 266.168856,121.326056 266.773018,120.916303 C267.377181,120.506549 268.080032,120.301675 268.881594,120.301675 C269.89252,120.301675 270.682107,120.642633 271.250378,121.324559 L271.35805,120.481128 L274.103686,120.481128 L274.103686,129.821673 C274.103686,130.677072 273.904794,131.4203 273.507004,132.051381 C273.109213,132.682461 272.533473,133.166981 271.779765,133.504953 C271.026058,133.842925 270.152727,134.011908 269.159747,134.011908 C268.447912,134.011908 267.758519,133.87732 267.091548,133.608138 C266.424576,133.338957 265.914635,132.989026 265.561708,132.558336 L266.826854,130.781749 C267.389144,131.445729 268.130877,131.777714 269.052075,131.777714 C270.392,131.777714 271.061952,131.089817 271.061952,129.714001 L271.061952,129.408931 C270.481717,130.048984 269.748957,130.369006 268.863649,130.369006 C267.679251,130.369006 266.722177,129.915891 265.992396,129.009647 C265.262616,128.103403 264.897731,126.89061 264.897731,125.371231 L264.897731,125.263559 Z M267.930492,125.451985 C267.930492,126.247566 268.080035,126.877141 268.379125,127.340731 C268.678216,127.804321 269.096936,128.036113 269.635298,128.036113 C270.287315,128.036113 270.762862,127.81778 271.061952,127.381108 L271.061952,123.298545 C270.768844,122.855892 270.299279,122.634568 269.653244,122.634568 C269.114881,122.634568 268.69317,122.875332 268.388098,123.356868 C268.083026,123.838403 267.930492,124.536769 267.930492,125.451985 Z M216.714516,143.010802 C216.714516,142.753584 216.579928,142.547215 216.310746,142.391688 C216.041565,142.236161 215.530128,142.074654 214.776421,141.907164 C214.022713,141.739673 213.400614,141.519845 212.910106,141.247673 C212.419598,140.975501 212.045741,140.645011 211.788523,140.256193 C211.531305,139.867376 211.402698,139.421738 211.402698,138.919266 C211.402698,138.027977 211.770574,137.293721 212.506336,136.716477 C213.242098,136.139232 214.205155,135.850614 215.395535,135.850614 C216.675641,135.850614 217.704497,136.140728 218.482131,136.720963 C219.259766,137.301198 219.648578,138.063867 219.648578,139.008993 L216.615817,139.008993 C216.615817,138.231358 216.206069,137.842546 215.386562,137.842546 C215.069526,137.842546 214.80334,137.930777 214.587995,138.10724 C214.37265,138.283703 214.264979,138.503531 214.264979,138.766731 C214.264979,139.035912 214.396576,139.254245 214.659776,139.421735 C214.922975,139.589226 215.343191,139.726806 215.920435,139.834478 C216.49768,139.942151 217.00463,140.070757 217.441302,140.220303 C218.900863,140.722774 219.630633,141.623023 219.630633,142.921075 C219.630633,143.806382 219.237335,144.527179 218.450727,145.083487 C217.66412,145.639795 216.645732,145.917945 215.395535,145.917945 C214.564063,145.917945 213.82233,145.768402 213.170313,145.469312 C212.518296,145.170222 212.00985,144.763465 211.64496,144.24903 C211.28007,143.734594 211.097628,143.193249 211.097628,142.624977 L213.924017,142.624977 C213.935981,143.073613 214.085524,143.401112 214.372651,143.607484 C214.659777,143.813856 215.027653,143.917041 215.476289,143.917041 C215.889033,143.917041 216.198587,143.833297 216.404959,143.665806 C216.611332,143.498316 216.714516,143.279983 216.714516,143.010802 Z M220.662489,140.794553 C220.662489,139.825501 220.850913,138.962638 221.227767,138.205939 C221.604621,137.449241 222.145966,136.867519 222.85182,136.460756 C223.557673,136.053993 224.386141,135.850614 225.337248,135.850614 C226.790827,135.850614 227.936326,136.300739 228.773779,137.201001 C229.611232,138.101263 230.029952,139.326019 230.029952,140.875307 L230.029952,140.982979 C230.029952,142.496376 229.609737,143.697206 228.769293,144.585504 C227.928849,145.473803 226.790827,145.917945 225.355193,145.917945 C223.973396,145.917945 222.863787,145.503711 222.026334,144.675231 C221.188881,143.846751 220.737262,142.723683 220.671462,141.305995 L220.662489,140.794553 Z M223.686278,140.982979 C223.686278,141.88025 223.826848,142.538239 224.107993,142.956966 C224.389138,143.375692 224.804867,143.585052 225.355193,143.585052 C226.431919,143.585052 226.982237,142.756584 227.006164,141.099624 L227.006164,140.794553 C227.006164,139.053847 226.449864,138.183508 225.337248,138.183508 C224.326323,138.183508 223.778996,138.934213 223.69525,140.435647 L223.686278,140.982979 Z M230.981055,140.794553 C230.981055,139.825501 231.169479,138.962638 231.546333,138.205939 C231.923187,137.449241 232.464532,136.867519 233.170385,136.460756 C233.876238,136.053993 234.704706,135.850614 235.655814,135.850614 C237.109393,135.850614 238.254892,136.300739 239.092344,137.201001 C239.929797,138.101263 240.348518,139.326019 240.348518,140.875307 L240.348518,140.982979 C240.348518,142.496376 239.928302,143.697206 239.087858,144.585504 C238.247414,145.473803 237.109393,145.917945 235.673759,145.917945 C234.291961,145.917945 233.182353,145.503711 232.3449,144.675231 C231.507447,143.846751 231.055827,142.723683 230.990027,141.305995 L230.981055,140.794553 Z M234.004843,140.982979 C234.004843,141.88025 234.145413,142.538239 234.426558,142.956966 C234.707703,143.375692 235.123433,143.585052 235.673759,143.585052 C236.750484,143.585052 237.300802,142.756584 237.324729,141.099624 L237.324729,140.794553 C237.324729,139.053847 236.76843,138.183508 235.655814,138.183508 C234.644888,138.183508 234.097561,138.934213 234.013816,140.435647 L234.004843,140.982979 Z M244.457999,136.030068 L244.556698,137.169596 C245.22666,136.290271 246.150836,135.850614 247.329252,135.850614 C248.340177,135.850614 249.095369,136.152691 249.59485,136.756854 C250.094331,137.361016 250.35304,138.270237 250.370985,139.484544 L250.370985,145.738492 L247.338224,145.738492 L247.338224,139.610161 C247.338224,139.119653 247.239526,138.759255 247.042126,138.528955 C246.844727,138.298656 246.485824,138.183508 245.965406,138.183508 C245.373207,138.183508 244.933551,138.416795 244.646425,138.883375 L244.646425,145.738492 L241.622636,145.738492 L241.622636,136.030068 L244.457999,136.030068 Z" id="Coming-soon"></path>
        </g>
    </g>
</svg>