<svg xmlns="http://www.w3.org/2000/svg" width="15" height="12" viewBox="0 0 15 12">
    <g fill="#FFF" fill-rule="evenodd">
        <path d="M13.504 3.596c-.177.126-4.65 3.207-4.809 3.302a2.35 2.35 0 0 1-.449.212c-.14.047-.27.07-.39.07H7.84c-.12 0-.25-.023-.39-.07A2.352 2.352 0 0 1 7 6.898c-.159-.095-2.858-1.933-4.816-3.302a3.725 3.725 0 0 1-.953-.968A2.088 2.088 0 0 1 .848 1.44c0-.347.123-.643.37-.89.248-.246.541-.37.88-.37h11.5c.4 0 .71.137.925.41.217.273.325.614.325 1.023 0 .33-.144.688-.43 1.074a3.891 3.891 0 0 1-.914.909z"/>
        <path d="M1.629 4.819a163.037 163.037 0 0 1 3.89 2.531c.297.206.538.366.723.481.185.115.431.232.738.352.308.12.594.18.86.18h.015c.266 0 .553-.06.86-.18.307-.12.553-.237.738-.352.185-.115.426-.275.723-.48.703-.485 1.997-1.329 3.883-2.532.296-.186.56-.399.789-.638v5.826c0 .323-.123.599-.368.829-.244.23-.539.345-.882.345h-11.5c-.344 0-.638-.115-.883-.345a1.097 1.097 0 0 1-.367-.83V4.182c.224.234.484.447.781.638z"/>
    </g>
</svg>
