<svg xmlns="http://www.w3.org/2000/svg" width="16" height="13" viewBox="0 0 16 13">
    <path fill="#FFF" fill-rule="nonzero" d="M.992 6.38l3.33 1.242 1.29 4.146a.392.392 0 0 0 .622.187l1.856-1.513a.554.554 0 0 1 .675-.019l3.348 2.431c.23.168.558.041.615-.237L15.181.819a.393.393 0 0 0-.526-.446L.988 5.645a.393.393 0 0 0 .004.734zm4.411.58l6.509-4.008c.117-.072.237.086.137.18L6.677 8.125c-.188.175-.31.41-.345.666l-.183 1.356c-.024.18-.278.199-.328.024l-.704-2.473a.655.655 0 0 1 .286-.737z"/>
</svg>
